# xmcd
#
# Track frame offsets: 
#        150
#        33468
#        65147
#        83297
#        133903
#        168714
#        200166
#        234023
#        253539
#        285576
#
# Disc length: 4241 seconds
#
# Revision: 0
# Processed by: cddbd v1.4PL0 Copyright (c) Steve Scherf et al.
# Submitted via: ExactAudioCopy v0.90b4
#
DISCID=8b108f0a
DTITLE=Various Artist - Blues Picks [Part One]
DYEAR=2001
DGENRE=Blues
TTITLE0=David Lindley and Ry Cooder - Crazy About An Automobile
TTITLE1=Ansley Lister - Need Her So Bad
TTITLE2=Harvey Mandel - Baby Batter
TTITLE3=Temple Of The Dog - Reach Down
TTITLE4=Steve Ray Vaughan - Tin Pan Alley
TTITLE5=Doyle Bramhall II - Take Your Time, Son
TTITLE6=Leslie West - Nunbucket  Sleighride
TTITLE7=van Wilks - Stiletto Blues
TTITLE8=Walter Throut Band - If You Just Try
TTITLE9=Harvey Mandel - Tobacco Road
EXTD=
EXTT0=
EXTT1=
EXTT2=
EXTT3=
EXTT4=
EXTT5=
EXTT6=
EXTT7=
EXTT8=
EXTT9=
PLAYORDER=
